<?xml version="1.0" standalone="no"?><!-- Generator: Gravit.io --><svg xmlns="http://www.w3.org/2000/svg" xmlns:xlink="http://www.w3.org/1999/xlink" style="isolation:isolate" viewBox="912 40 580.2391968 720.0000002" width="580.2391968" height="720.0000002"><path d=" M 1007.9745504 40 C 1007.9745504 40 989.7525472 146.0744552 1072.8422648 201.0458624 C 1042.4843776 270.1455024 1073.562128 371.7989776 1110.9295968000001 427.584776 C 1129.4351824 455.2086344 1159.9748536 484.3522064 1194.8846048 488.8822568 C 1234.4407496 494.0158304 1273.0225335999999 457.87722 1293.3096008 427.584776 C 1340.9224008 356.5145992 1378.3698544 210.9857984 1291.5135768 153.1785648 C 1276.4255256000001 143.1368304 1258.8215872 135.6691536 1240.2142016 131.117288 C 1219.8980496 126.1436848 1198.7093352 125.2856656 1178.0659719999999 128.4123464 C 1135.732172 129.4885056 1048.5341416 121.1119104 1007.9745504 40 Z  M 1202.1195984 556.2004168 C 1362.3510695999998 556.2004168 1492.2391968 620.7191064 1492.2391968 700.3113048 C 1492.2391968 779.896232 912 779.896232 912 700.3113048 C 912 620.7191064 1041.8953984 556.2004168 1202.1195984 556.2004168 Z " fill-rule="evenodd" fill="rgb(0,0,0)" stroke-width="8" stroke="rgba(0,0,0,0)" stroke-linejoin="miter" stroke-linecap="butt"/></svg>