<?xml version="1.0" standalone="no"?><!-- Generator: Gravit.io --><svg xmlns="http://www.w3.org/2000/svg" xmlns:xlink="http://www.w3.org/1999/xlink" style="isolation:isolate" viewBox="520 235.9998800000003 720 528.0002400000003" width="720" height="528.0002400000003"><path d=" M 544 235.9998800000003 C 530.9808 235.9998800000003 520 246.98068000000058 520 259.9998800000003 L 520 692.0001200000006 C 520 705.0193200000012 530.9808 716.0001200000006 544 716.0001200000006 L 1012.2496 716.0001200000006 C 1035.7359999999999 745.1817200000005 1071.7352 764.0001200000006 1112 764.0001200000006 C 1182.5504 764.0001200000006 1240 706.5505200000007 1240 636.0001200000006 C 1240 588.7361200000005 1214.2328 547.4201200000007 1176 525.2497200000007 L 1176 259.9998800000003 C 1176 246.98068000000058 1165.0192 235.9998800000003 1152 235.9998800000003 L 544 235.9998800000003 Z  M 552 267.9998800000003 L 1144 267.9998800000003 L 1144 512.2497200000007 C 1133.7408 509.58892000000105 1123.0768 508.0001200000006 1112 508.0001200000006 C 1100.7552 508.0001200000006 1089.9 509.5105200000007 1079.5 512.2497200000007 L 963 400.2498800000003 C 955.2952 394.2926000000007 946.0504000000001 394.40844000000016 940.2496 401.2498800000003 L 798.5 557.7497200000007 L 687.5 463.7496400000009 C 681.956 458.9840400000012 673.0216 458.76324000000113 667.2496 463.2536400000008 L 552 554.7497200000007 L 552 267.9998800000003 Z  M 776 315.9998800000003 C 740.8432 315.9998800000003 712 344.84316000000035 712 379.9998800000003 C 712 415.15660000000025 740.8432 443.9998800000003 776 443.9998800000003 C 811.1568 443.9998800000003 840 415.15660000000025 840 379.9998800000003 C 840 344.84316000000035 811.1568 315.9998800000003 776 315.9998800000003 Z  M 776 347.9998800000003 C 793.8624 347.9998800000003 808 362.13724 808 379.9998800000003 C 808 397.8625200000006 793.8624 411.9998800000003 776 411.9998800000003 C 758.1376 411.9998800000003 744 397.8625200000006 744 379.9998800000003 C 744 362.13724 758.1376 347.9998800000003 776 347.9998800000003 Z  M 952.7504 434.7498800000003 L 1047.2496 525.7497200000007 C 1009.4464 548.0281200000009 984 589.0577200000007 984 636.0001200000006 C 984 652.9665200000009 987.2216000000001 669.1657200000009 993.2496 684.0001200000006 L 552 684.0001200000006 L 552 595.7497200000007 L 676.7504 496.5001200000006 L 789.7504 592.0001200000006 C 795.932 597.2361200000005 806.2 596.6529200000004 811.7504 590.7497200000007 L 952.7504 434.7498800000003 Z  M 1112 532.0001200000006 C 1169.58 532.0001200000006 1216 578.4201200000007 1216 636.0001200000006 C 1216 693.5801200000005 1169.58 740.0001200000006 1112 740.0001200000006 C 1054.42 740.0001200000006 1008 693.5801200000005 1008 636.0001200000006 C 1008 578.4201200000007 1054.42 532.0001200000006 1112 532.0001200000006 Z  M 1112 540.0001200000006 C 1088.8192 540.0001200000006 1065.6272 551.3913200000006 1060.2496 574.0001200000006 C 1058.716 580.161720000001 1063.0824 587.2409200000002 1069.2496 588.7497200000007 C 1075.4168 590.259320000001 1082.2648 585.9241200000006 1083.7504 579.7497200000007 C 1085.8288 571.0113200000005 1096.5432 564.0001200000006 1112 564.0001200000006 C 1128.4992 564.0001200000006 1140 574.7945200000004 1140 586.2497200000007 C 1140 607.9249200000004 1133.6688 611.8641200000011 1123.7504 621.0001200000006 C 1113.8296 630.136120000001 1100 644.7721200000005 1100 672.0001200000006 C 1099.912 678.3401200000008 1105.6599999999999 684.2497199999998 1112 684.2497199999998 C 1118.3408 684.2497199999998 1124.0896 678.3401199999989 1124 672.0001199999997 C 1124 651.47372 1130.1688 648.0329199999996 1140.2496 638.7497199999998 C 1150.3296 629.4657200000001 1164 614.3537200000001 1164 586.2497199999998 C 1164 559.7169199999998 1139.6592 540.0001199999997 1112 540.0001199999997 L 1112 540.0001200000006 Z  M 1112 700.0001200000006 C 1103.1632 700.0001200000006 1096 707.1633200000015 1096 716.0001200000006 C 1096 724.8369199999997 1103.1632 732.0001200000006 1112 732.0001200000006 C 1120.8368 732.0001200000006 1128 724.8369199999997 1128 716.0001200000006 C 1128 707.1633200000015 1120.8368 700.0001200000006 1112 700.0001200000006 Z " fill-rule="evenodd" fill="rgb(0,0,0)" stroke-width="8" stroke="rgba(0,0,0,0)" stroke-linejoin="miter" stroke-linecap="butt"/></svg>